<?xml version="1.0" encoding="utf-8"?>
<svg width="149px" height="32px" viewBox="0 0 149 32" version="1.1" xmlns:xlink="http://www.w3.org/1999/xlink" xmlns="http://www.w3.org/2000/svg">
  <desc>Created with Lunacy</desc>
  <g id="Recurso-2">
    <g id="Recurso-1">
      <path d="M15.7944 20.4512L3.38379 20.4512C3.08465 20.4512 2.7978 20.3314 2.58646 20.1182C2.37513 19.905 2.25667 19.6159 2.25721 19.3147L2.25721 13.6341C2.25667 13.3329 2.37513 13.0438 2.58646 12.8306C2.7978 12.6174 3.08465 12.4976 3.38379 12.4976L11.282 12.4976C11.6962 12.5153 12.0867 12.3028 12.2991 11.9442C12.5114 11.5856 12.5114 11.1386 12.2991 10.78C12.0867 10.4214 11.6962 10.209 11.282 10.2266L3.38379 10.2266C2.76127 10.2255 2.25721 9.71698 2.25721 9.09009L2.25721 3.40955C2.25667 3.10831 2.37513 2.81923 2.58646 2.60603C2.7978 2.39284 3.08465 2.27303 3.38379 2.27303L15.7944 2.27303C16.4177 2.27303 16.923 1.7642 16.923 1.13652C16.923 0.508835 16.4177 0 15.7944 0L1.1286 0C0.505293 0 0 0.508835 0 1.13652L0 21.5877C0 22.2154 0.505293 22.7242 1.1286 22.7242L15.7944 22.7242C16.4177 22.7242 16.923 22.2154 16.923 21.5877C16.923 20.96 16.4177 20.4512 15.7944 20.4512L15.7944 20.4512Z" transform="translate(24.82129 4.544022)" id="Path" fill="#FFFFFF" stroke="none" />
      <path d="M13.5396 1.51832e-07C8.06332 2.13147e-07 3.12631 3.32207 1.03081 8.41704C-1.06468 13.512 0.0940471 19.3764 3.96665 23.2756C7.83926 27.1748 13.663 28.3408 18.7222 26.2298C23.7814 24.1189 27.0796 19.1468 27.0788 13.6321C27.0788 10.0163 25.6523 6.5486 23.1132 3.99203C20.574 1.43546 17.1302 -0.000539118 13.5396 1.51832e-07ZM13.5396 26.699C8.29116 26.6998 3.55904 23.5167 1.54998 18.634C-0.45908 13.7513 0.650586 8.13065 4.36152 4.39313C8.07244 0.655605 13.6538 -0.462715 18.5028 1.55967C23.3518 3.58206 26.5135 8.34684 26.5135 13.6321C26.514 17.0975 25.1474 20.4211 22.7143 22.8716C20.2811 25.3222 16.9809 26.699 13.5396 26.699Z" transform="translate(60.92383 2.273026)" id="Shape" fill="#FD0262" stroke="none" />
      <path d="M11.2864 1.83153e-07C6.72204 -0.000822131 2.60673 2.76741 0.859661 7.0137C-0.887409 11.26 0.0778759 16.148 3.30534 19.3981C6.53281 22.6482 11.3868 23.6202 15.6035 21.8609C19.8202 20.1016 22.5692 15.9574 22.5684 11.3611C22.5684 5.08653 17.5173 1.83153e-07 11.2864 1.83153e-07ZM11.2864 20.4512C7.63519 20.452 4.34306 18.2378 2.94525 14.8411C1.54743 11.4445 2.31923 7.53431 4.90072 4.93414C7.48221 2.33397 11.365 1.55589 14.7383 2.96275C18.1116 4.3696 20.3112 7.68431 20.3112 11.3611C20.3112 16.3806 16.271 20.4501 11.2864 20.4512Z" transform="translate(63.17773 4.544022)" id="Shape" fill="#FD0262" stroke="none" />
      <path d="M15.7989 1.30841e-07C9.40948 -0.000822185 3.64878 3.87453 1.20328 9.81881C-1.24222 15.7631 0.109122 22.6055 4.62713 27.1552C9.14513 31.7049 15.9399 33.0657 21.8428 30.6031C27.7457 28.1404 31.5941 22.3393 31.5933 15.9051C31.5922 7.12143 24.5215 0.00112272 15.7989 1.30841e-07ZM15.7989 31.243C7.38699 31.243 0.567791 24.376 0.567791 15.9051C0.567791 7.43424 7.38699 0.567241 15.7989 0.567241C24.2108 0.567241 31.03 7.43424 31.03 15.9051C31.0305 19.9731 29.426 23.8747 26.5695 26.7512C23.713 29.6278 19.8386 31.2435 15.7989 31.243Z" transform="translate(58.66504 0)" id="Shape" fill="#FD0262" stroke="none" />
      <path d="M15.7954 0.0480587C15.1721 0.0480587 14.6668 0.556894 14.6668 1.18457L14.6668 9.13815C14.6668 9.43957 14.5479 9.72865 14.3363 9.94179C14.1246 10.1549 13.8375 10.2747 13.5382 10.2747L3.38481 10.2747C3.08548 10.2747 2.79842 10.1549 2.58676 9.94179C2.37511 9.72865 2.2562 9.43957 2.2562 9.13815L2.2562 1.18457C2.27373 0.767438 2.06273 0.374206 1.70663 0.160374C1.35054 -0.053458 0.90668 -0.053458 0.550582 0.160374C0.194483 0.374206 -0.0165185 0.767438 0.00101348 1.18457L0.00101348 21.6358C-0.0165185 22.0529 0.194483 22.4461 0.550582 22.66C0.90668 22.8738 1.35054 22.8738 1.70663 22.66C2.06273 22.4461 2.27373 22.0529 2.2562 21.6358L2.2562 13.6822C2.2562 13.3808 2.37511 13.0917 2.58676 12.8785C2.79842 12.6654 3.08548 12.5457 3.38481 12.5457L13.5382 12.5457C13.8375 12.5457 14.1246 12.6654 14.3363 12.8785C14.5479 13.0917 14.6668 13.3808 14.6668 13.6822L14.6668 21.6358C14.6668 22.2634 15.1721 22.7723 15.7954 22.7723C16.4187 22.7723 16.924 22.2634 16.924 21.6358L16.924 1.18457C16.924 0.556894 16.4187 0.0480587 15.7954 0.0480587Z" transform="translate(107.1816 4.495972)" id="Path" fill="#FFFFFF" stroke="none" />
      <path d="M22.5066 10.2215L11.2811 10.2215C10.8669 10.2038 10.4764 10.4163 10.2641 10.7749C10.0517 11.1335 10.0517 11.5804 10.2641 11.939C10.4764 12.2976 10.8669 12.5101 11.2811 12.4925L20.2353 12.4925C19.7109 16.6895 16.3809 19.9676 12.2022 20.4002C8.02349 20.8328 4.10077 18.3056 2.73941 14.3037C1.37806 10.3018 2.93793 5.88325 6.50229 3.64475C10.0666 1.40625 14.6933 1.93957 17.6631 4.93127C18.108 5.34715 18.7998 5.3342 19.229 4.90198C19.6582 4.46976 19.6711 3.77308 19.2581 3.32511L19.2581 3.32511C15.451 -0.506166 9.48646 -1.09575 5.0122 1.91691C0.537931 4.92957 -1.19998 10.7054 0.861294 15.7122C2.92256 20.7191 8.20893 23.5624 13.4875 22.5034C18.7661 21.4444 22.5667 16.778 22.5652 11.358C22.5651 10.9784 22.5456 10.599 22.5066 10.2215Z" transform="translate(0 4.549179)" id="Path" fill="#FFFFFF" stroke="none" />
      <path d="M16.7887 22.1021C16.8063 22.0699 16.8218 22.0366 16.8352 22.0025C16.8481 21.9679 16.8589 21.9326 16.8675 21.8967C16.879 21.8621 16.8885 21.8268 16.8958 21.791C16.9029 21.7493 16.9069 21.7072 16.9079 21.665C16.9079 21.6385 16.9079 21.6141 16.9079 21.5877L16.9079 1.13652C16.9079 0.508835 16.4026 0 15.7793 0C15.156 0 14.6507 0.508835 14.6507 1.13652L14.6507 18.0745L2.03614 0.471684C2.01998 0.44932 1.99979 0.433055 1.98364 0.412724C1.95771 0.379448 1.93008 0.347553 1.90086 0.317167C1.87462 0.29277 1.84433 0.270405 1.81607 0.248041C1.78848 0.224578 1.75949 0.20285 1.72925 0.182981C1.69695 0.16265 1.66464 0.146385 1.63234 0.13012C1.60039 0.111828 1.56735 0.0955322 1.53341 0.0813249C1.49901 0.06863 1.46396 0.0577716 1.42843 0.0487949L1.32344 0.0203312C1.28306 0.0203312 1.24066 0.0203312 1.19826 0.00813249C1.15586 -0.00406625 1.14779 0.00813249 1.12154 0.00813249L1.10337 0.00813249C1.05935 0.00974984 1.01549 0.0145057 0.972138 0.0223643C0.941853 0.0223643 0.911569 0.0223643 0.881284 0.03253C0.845627 0.041901 0.810567 0.0534432 0.776298 0.067093C0.73998 0.0764661 0.704248 0.0880075 0.669293 0.101656C0.643046 0.113855 0.616799 0.132153 0.590553 0.146385C0.550426 0.165525 0.511935 0.187966 0.475471 0.213478L0.461339 0.213478C0.43913 0.229743 0.420959 0.250074 0.40077 0.266339C0.367953 0.291951 0.336922 0.319802 0.307897 0.349697C0.283346 0.376045 0.260421 0.403883 0.239252 0.433055C0.217043 0.463552 0.192816 0.492016 0.172626 0.522512C0.153161 0.55393 0.135631 0.586521 0.120133 0.620102C0.102625 0.652312 0.087116 0.685583 0.0736964 0.719725C0.0608116 0.754275 0.0500239 0.789581 0.0413929 0.825448C0.0298459 0.860077 0.0204066 0.895384 0.0131273 0.93117C0.00599654 0.972828 0.00194747 1.01496 0.00101348 1.05722C0.00101348 1.08365 0.00101348 1.10805 0.00101348 1.13448L0.00101348 21.5877C-0.0165185 22.0048 0.194483 22.3981 0.550582 22.6119C0.90668 22.8257 1.35054 22.8257 1.70663 22.6119C2.06273 22.3981 2.27373 22.0048 2.2562 21.5877L2.2562 4.64975L14.8808 22.2525C14.9145 22.2975 14.9509 22.3403 14.9898 22.3806L15.0141 22.405C15.059 22.4477 15.1069 22.4871 15.1574 22.5229L15.1675 22.5229C15.2209 22.5589 15.2777 22.5896 15.3371 22.6144L15.3755 22.6327C15.4338 22.6559 15.4939 22.6743 15.5552 22.6876C15.5673 22.6886 15.5794 22.6886 15.5915 22.6876C15.658 22.7011 15.7256 22.7086 15.7934 22.71L15.7934 22.71C15.8613 22.7094 15.9289 22.7019 15.9953 22.6876L16.0579 22.6734C16.1031 22.6626 16.1476 22.6491 16.1911 22.6327L16.2557 22.6043C16.2978 22.5858 16.3383 22.5641 16.3769 22.5392L16.4334 22.5046L16.4496 22.4945C16.4718 22.4782 16.4899 22.4579 16.5101 22.4416C16.5425 22.4155 16.5735 22.3877 16.603 22.3582C16.6276 22.3312 16.6505 22.3027 16.6716 22.2729C16.6939 22.2444 16.7181 22.2159 16.7383 22.1854C16.7585 22.1549 16.7726 22.1346 16.7887 22.1021Z" transform="translate(44.00879 4.544022)" id="Path" fill="#FFFFFF" stroke="none" />
      <path d="M22.3307 22.252C22.3525 22.2233 22.3727 22.1935 22.3913 22.1626C22.4094 22.1321 22.4256 22.1016 22.4417 22.069C22.4579 22.0365 22.4741 22.0019 22.4882 21.9674C22.5004 21.9328 22.5105 21.8975 22.5185 21.8617C22.5287 21.8269 22.5368 21.7916 22.5427 21.7559C22.5495 21.7155 22.5542 21.6748 22.5568 21.6339C22.5568 21.6116 22.5568 21.5912 22.5568 21.5689C22.5568 21.5465 22.5568 21.5465 22.5568 21.5343C22.5558 21.4934 22.5517 21.4526 22.5447 21.4123C22.539 21.3425 22.5226 21.2739 22.4963 21.209C22.4846 21.1695 22.4704 21.1308 22.4539 21.0931C22.449 21.0833 22.4449 21.0731 22.4417 21.0626L12.2883 0.621625L12.2742 0.599261C12.2551 0.561472 12.2328 0.525419 12.2076 0.491505C12.1894 0.465075 12.1712 0.436611 12.1511 0.410181C12.1271 0.381598 12.1015 0.354444 12.0743 0.328856C12.0481 0.302425 12.0218 0.275994 11.9936 0.251597C11.9653 0.227199 11.9411 0.215001 11.9128 0.19467C11.8846 0.174338 11.8442 0.147908 11.8078 0.127576L11.7856 0.113345L11.717 0.086914C11.6786 0.0706491 11.6423 0.0564172 11.6039 0.0442185L11.4989 0.019821C11.4629 0.0117488 11.4266 0.00564056 11.3899 0.00152288C11.3536 -0.000507627 11.3172 -0.000507627 11.2809 0.00152288C11.2439 -0.000468893 11.2068 -0.000468893 11.1698 0.00152288C11.1339 0.00564177 11.0981 0.0117504 11.0628 0.019821C11.0268 0.0259942 10.991 0.0341387 10.9558 0.0442185C10.918 0.0563272 10.881 0.0705819 10.8448 0.086914L10.7761 0.113345L10.7519 0.127576C10.7156 0.147908 10.6812 0.172305 10.6469 0.19467C10.6126 0.217034 10.5904 0.231266 10.5662 0.251597C10.5419 0.271928 10.5117 0.304458 10.4854 0.330889C10.4592 0.357319 10.4329 0.381717 10.4087 0.410181C10.3845 0.438644 10.3703 0.465075 10.3522 0.493539C10.3276 0.527238 10.3054 0.562558 10.2855 0.599261L10.2714 0.621625L0.117998 21.0545C0.113098 21.0643 0.109045 21.0745 0.105884 21.085C0.0886592 21.1226 0.0738236 21.1614 0.0614664 21.2009C0.0513716 21.2334 0.0392577 21.268 0.0311819 21.3025C0.023106 21.3371 0.0190681 21.3717 0.0130111 21.4062C0.00695423 21.4408 0.00291629 21.4876 0.00089732 21.5282C-0.00112165 21.5689 0.00089732 21.5506 0.00089732 21.5628C0.00089732 21.575 0.00089732 21.6055 0.00089732 21.6278C0.00182696 21.6688 0.00587682 21.7095 0.0130111 21.7498C0.0189407 21.7855 0.0270316 21.8208 0.0372388 21.8556C0.044939 21.8917 0.0557476 21.927 0.0695423 21.9613C0.0826482 21.9959 0.0974727 22.0298 0.11396 22.0629C0.130111 22.0955 0.146263 22.126 0.164434 22.1565C0.183657 22.1874 0.204551 22.2173 0.227022 22.2459C0.248355 22.2762 0.271981 22.3047 0.297686 22.3313C0.321722 22.3586 0.347341 22.3844 0.374407 22.4086C0.402672 22.4309 0.428919 22.4553 0.459204 22.4777L0.560152 22.5428C0.580342 22.5529 0.596493 22.5672 0.616683 22.5773L0.661101 22.5976L0.703499 22.6159C0.762449 22.6398 0.823215 22.6588 0.885206 22.6729L0.911453 22.6729C0.977886 22.6868 1.0455 22.6943 1.11335 22.6952C1.18118 22.6939 1.24876 22.6864 1.31525 22.6729L1.36976 22.6729C1.42393 22.6593 1.4772 22.6423 1.52926 22.622L1.55752 22.6119C1.6165 22.5862 1.67324 22.5556 1.72712 22.5204L1.76952 22.4899C1.81109 22.459 1.85086 22.4258 1.88863 22.3903C1.89873 22.3903 1.91084 22.372 1.92094 22.3598C1.96678 22.3138 2.00803 22.2634 2.0441 22.2093C2.05089 22.1996 2.05696 22.1894 2.06227 22.1788C2.08447 22.1443 2.10466 22.1117 2.12283 22.0772L6.89164 12.4788L15.6459 12.4788L20.4248 22.0711C20.443 22.1056 20.4652 22.1402 20.4854 22.1727L20.5035 22.2032C20.5402 22.2581 20.5821 22.3091 20.6287 22.3557C20.6287 22.3557 20.6489 22.374 20.659 22.3842C20.697 22.4202 20.7375 22.4534 20.7801 22.4838L20.8205 22.5143C20.8744 22.5495 20.9311 22.5801 20.9901 22.6058L21.0184 22.6159C21.0705 22.6359 21.1238 22.6529 21.1779 22.6668L21.2344 22.6668C21.3009 22.6804 21.3685 22.6878 21.4363 22.6891C21.5042 22.6883 21.5718 22.6808 21.6382 22.6668L21.6644 22.6668C21.7271 22.6527 21.7885 22.6337 21.8482 22.6098L21.8886 22.5915L21.933 22.5712C21.9532 22.5611 21.9693 22.5468 21.9895 22.5367L22.0925 22.4716L22.1752 22.4025C22.2015 22.3781 22.2277 22.3537 22.254 22.3252C22.2802 22.2967 22.3065 22.2744 22.3307 22.252ZM8.03236 10.2078L11.2809 3.66928L14.5274 10.2078L8.03236 10.2078Z" transform="translate(126.3643 4.562836)" id="Shape" fill="#FFFFFF" stroke="none" />
      <path d="M11.0357 10.2268L11.0357 10.2268L6.25481 10.2268C4.07377 10.2268 2.3057 8.44635 2.3057 6.25003C2.3057 4.05371 4.07377 2.27324 6.25481 2.27324L14.7163 2.27324C15.3396 2.27324 15.8449 1.76441 15.8449 1.13673C15.8449 0.509046 15.3396 0.000211074 14.7163 0.000211074L6.25481 0.000211074C2.86106 -0.0275969 0.0749317 2.69573 0.00148163 6.11258C-0.0719684 9.52942 2.59452 12.3716 5.98628 12.4917L5.98628 12.4917L10.7733 12.4917C12.1841 12.4917 13.4878 13.2497 14.1933 14.4801C14.8987 15.7105 14.8987 17.2265 14.1933 18.4569C13.4878 19.6873 12.1841 20.4453 10.7733 20.4453L2.3057 20.4453C1.68239 20.4453 1.1771 20.9541 1.1771 21.5818C1.1771 22.2095 1.68239 22.7183 2.3057 22.7183L10.7672 22.7183C14.1609 22.7461 16.9471 20.0228 17.0205 16.606C17.094 13.1891 14.4275 10.3469 11.0357 10.2268L11.0357 10.2268Z" transform="translate(87.38867 4.549911)" id="Path" fill="#FFFFFF" stroke="none" />
    </g>
  </g>
  <g id="Recurso-2-copy">
    <g id="Recurso-1">
      <path d="M15.7944 20.4512L3.38379 20.4512C3.08465 20.4512 2.7978 20.3314 2.58646 20.1182C2.37513 19.905 2.25667 19.6159 2.25721 19.3147L2.25721 13.6341C2.25667 13.3329 2.37513 13.0438 2.58646 12.8306C2.7978 12.6174 3.08465 12.4976 3.38379 12.4976L11.282 12.4976C11.6962 12.5153 12.0867 12.3028 12.2991 11.9442C12.5114 11.5856 12.5114 11.1386 12.2991 10.78C12.0867 10.4214 11.6962 10.209 11.282 10.2266L3.38379 10.2266C2.76127 10.2255 2.25721 9.71698 2.25721 9.09009L2.25721 3.40955C2.25667 3.10831 2.37513 2.81923 2.58646 2.60603C2.7978 2.39284 3.08465 2.27303 3.38379 2.27303L15.7944 2.27303C16.4177 2.27303 16.923 1.7642 16.923 1.13652C16.923 0.508835 16.4177 0 15.7944 0L1.1286 0C0.505293 0 0 0.508835 0 1.13652L0 21.5877C0 22.2154 0.505293 22.7242 1.1286 22.7242L15.7944 22.7242C16.4177 22.7242 16.923 22.2154 16.923 21.5877C16.923 20.96 16.4177 20.4512 15.7944 20.4512L15.7944 20.4512Z" transform="translate(24.82129 4.544022)" id="Path" fill="#FFFFFF" stroke="none" />
      <path d="M13.5396 1.51832e-07C8.06332 2.13147e-07 3.12631 3.32207 1.03081 8.41704C-1.06468 13.512 0.0940471 19.3764 3.96665 23.2756C7.83926 27.1748 13.663 28.3408 18.7222 26.2298C23.7814 24.1189 27.0796 19.1468 27.0788 13.6321C27.0788 10.0163 25.6523 6.5486 23.1132 3.99203C20.574 1.43546 17.1302 -0.000539118 13.5396 1.51832e-07ZM13.5396 26.699C8.29116 26.6998 3.55904 23.5167 1.54998 18.634C-0.45908 13.7513 0.650586 8.13065 4.36152 4.39313C8.07244 0.655605 13.6538 -0.462715 18.5028 1.55967C23.3518 3.58206 26.5135 8.34684 26.5135 13.6321C26.514 17.0975 25.1474 20.4211 22.7143 22.8716C20.2811 25.3222 16.9809 26.699 13.5396 26.699Z" transform="translate(60.92383 2.273026)" id="Shape" fill="#FD0262" stroke="none" />
      <path d="M11.2864 1.83153e-07C6.72204 -0.000822131 2.60673 2.76741 0.859661 7.0137C-0.887409 11.26 0.0778759 16.148 3.30534 19.3981C6.53281 22.6482 11.3868 23.6202 15.6035 21.8609C19.8202 20.1016 22.5692 15.9574 22.5684 11.3611C22.5684 5.08653 17.5173 1.83153e-07 11.2864 1.83153e-07ZM11.2864 20.4512C7.63518 20.452 4.34306 18.2378 2.94524 14.8411C1.54743 11.4445 2.31923 7.53431 4.90072 4.93414C7.48221 2.33397 11.365 1.55589 14.7383 2.96275C18.1116 4.3696 20.3112 7.68431 20.3112 11.3611C20.3112 16.3806 16.271 20.4501 11.2864 20.4512Z" transform="translate(63.17773 4.544022)" id="Shape" fill="#FD0262" stroke="none" />
      <path d="M15.7989 1.30841e-07C9.40948 -0.000822185 3.64878 3.87453 1.20328 9.81881C-1.24222 15.7631 0.109122 22.6055 4.62713 27.1552C9.14513 31.7049 15.9399 33.0657 21.8428 30.6031C27.7457 28.1404 31.5941 22.3393 31.5933 15.9051C31.5922 7.12143 24.5215 0.00112272 15.7989 1.30841e-07ZM15.7989 31.243C7.38699 31.243 0.567792 24.376 0.567792 15.9051C0.567792 7.43424 7.38699 0.567241 15.7989 0.567241C24.2108 0.567241 31.03 7.43424 31.03 15.9051C31.0306 19.9731 29.426 23.8747 26.5695 26.7512C23.713 29.6278 19.8386 31.2435 15.7989 31.243Z" transform="translate(58.66504 0)" id="Shape" fill="#FD0262" stroke="none" />
      <path d="M15.7954 0.0480587C15.1721 0.0480587 14.6668 0.556894 14.6668 1.18457L14.6668 9.13815C14.6668 9.43957 14.5479 9.72865 14.3363 9.94179C14.1246 10.1549 13.8375 10.2747 13.5382 10.2747L3.38481 10.2747C3.08548 10.2747 2.79842 10.1549 2.58676 9.94179C2.37511 9.72865 2.2562 9.43957 2.2562 9.13815L2.2562 1.18457C2.27373 0.767438 2.06273 0.374206 1.70663 0.160374C1.35054 -0.053458 0.90668 -0.053458 0.550582 0.160374C0.194483 0.374206 -0.0165185 0.767438 0.00101348 1.18457L0.00101348 21.6358C-0.0165185 22.0529 0.194483 22.4461 0.550582 22.66C0.90668 22.8738 1.35054 22.8738 1.70663 22.66C2.06273 22.4461 2.27373 22.0529 2.2562 21.6358L2.2562 13.6822C2.2562 13.3808 2.37511 13.0917 2.58676 12.8785C2.79842 12.6654 3.08548 12.5457 3.38481 12.5457L13.5382 12.5457C13.8375 12.5457 14.1246 12.6654 14.3363 12.8785C14.5479 13.0917 14.6668 13.3808 14.6668 13.6822L14.6668 21.6358C14.6668 22.2634 15.1721 22.7723 15.7954 22.7723C16.4187 22.7723 16.924 22.2634 16.924 21.6358L16.924 1.18457C16.924 0.556894 16.4187 0.0480587 15.7954 0.0480587Z" transform="translate(107.1816 4.495972)" id="Path" fill="#FFFFFF" stroke="none" />
      <path d="M22.5066 10.2215L11.2811 10.2215C10.8669 10.2038 10.4764 10.4163 10.2641 10.7749C10.0517 11.1335 10.0517 11.5804 10.2641 11.939C10.4764 12.2976 10.8669 12.5101 11.2811 12.4925L20.2353 12.4925C19.7109 16.6895 16.3809 19.9676 12.2022 20.4002C8.02349 20.8328 4.10077 18.3056 2.73941 14.3037C1.37806 10.3018 2.93793 5.88325 6.50229 3.64475C10.0666 1.40625 14.6933 1.93957 17.6631 4.93127C18.108 5.34715 18.7998 5.3342 19.229 4.90198C19.6582 4.46976 19.6711 3.77308 19.2581 3.32511L19.2581 3.32511C15.451 -0.506166 9.48646 -1.09575 5.0122 1.91691C0.537931 4.92957 -1.19998 10.7054 0.861294 15.7122C2.92256 20.7191 8.20893 23.5624 13.4875 22.5034C18.7661 21.4444 22.5667 16.778 22.5652 11.358C22.5651 10.9784 22.5456 10.599 22.5066 10.2215Z" transform="translate(0 4.549179)" id="Path" fill="#FFFFFF" stroke="none" />
      <path d="M16.7887 22.1021C16.8063 22.0699 16.8218 22.0366 16.8352 22.0025C16.8481 21.9679 16.8589 21.9326 16.8675 21.8967C16.879 21.8621 16.8885 21.8268 16.8958 21.791C16.9029 21.7493 16.9069 21.7072 16.9079 21.665C16.9079 21.6385 16.9079 21.6141 16.9079 21.5877L16.9079 1.13652C16.9079 0.508835 16.4026 0 15.7793 0C15.156 0 14.6507 0.508835 14.6507 1.13652L14.6507 18.0745L2.03614 0.471684C2.01998 0.44932 1.99979 0.433055 1.98364 0.412724C1.95771 0.379448 1.93008 0.347553 1.90086 0.317167C1.87462 0.29277 1.84433 0.270405 1.81607 0.248041C1.78848 0.224578 1.75949 0.20285 1.72925 0.182981C1.69695 0.16265 1.66464 0.146385 1.63234 0.13012C1.60039 0.111828 1.56735 0.0955322 1.53341 0.0813249C1.49901 0.06863 1.46396 0.0577716 1.42843 0.0487949L1.32344 0.0203312C1.28306 0.0203312 1.24066 0.0203312 1.19826 0.00813249C1.15586 -0.00406625 1.14779 0.00813249 1.12154 0.00813249L1.10337 0.00813249C1.05935 0.00974984 1.01549 0.0145057 0.972138 0.0223643C0.941853 0.0223643 0.911569 0.0223643 0.881284 0.03253C0.845627 0.041901 0.810567 0.0534432 0.776298 0.067093C0.73998 0.0764661 0.704248 0.0880075 0.669293 0.101656C0.643046 0.113855 0.616799 0.132153 0.590553 0.146385C0.550426 0.165525 0.511935 0.187966 0.475471 0.213478L0.461339 0.213478C0.43913 0.229743 0.420959 0.250074 0.40077 0.266339C0.367953 0.291951 0.336922 0.319802 0.307897 0.349697C0.283346 0.376045 0.260421 0.403883 0.239252 0.433055C0.217043 0.463552 0.192816 0.492016 0.172626 0.522512C0.153161 0.55393 0.135631 0.586521 0.120133 0.620102C0.102625 0.652312 0.087116 0.685583 0.0736964 0.719725C0.0608116 0.754275 0.0500239 0.789581 0.0413929 0.825448C0.0298459 0.860077 0.0204066 0.895384 0.0131273 0.93117C0.00599654 0.972828 0.00194747 1.01496 0.00101348 1.05722C0.00101348 1.08365 0.00101348 1.10805 0.00101348 1.13448L0.00101348 21.5877C-0.0165185 22.0048 0.194483 22.3981 0.550582 22.6119C0.90668 22.8257 1.35054 22.8257 1.70663 22.6119C2.06273 22.3981 2.27373 22.0048 2.2562 21.5877L2.2562 4.64975L14.8808 22.2525C14.9145 22.2975 14.9509 22.3403 14.9898 22.3806L15.0141 22.405C15.059 22.4477 15.1069 22.4871 15.1574 22.5229L15.1675 22.5229C15.2209 22.5589 15.2777 22.5896 15.3371 22.6144L15.3755 22.6327C15.4338 22.6559 15.4939 22.6743 15.5552 22.6876C15.5673 22.6886 15.5794 22.6886 15.5915 22.6876C15.658 22.7011 15.7256 22.7086 15.7934 22.71L15.7934 22.71C15.8613 22.7094 15.9289 22.7019 15.9953 22.6876L16.0579 22.6734C16.1031 22.6626 16.1476 22.6491 16.1911 22.6327L16.2557 22.6043C16.2978 22.5858 16.3383 22.5641 16.3769 22.5392L16.4334 22.5046L16.4496 22.4945C16.4718 22.4782 16.4899 22.4579 16.5101 22.4416C16.5425 22.4155 16.5735 22.3877 16.603 22.3582C16.6276 22.3312 16.6505 22.3027 16.6716 22.2729C16.6939 22.2444 16.7181 22.2159 16.7383 22.1854C16.7585 22.1549 16.7726 22.1346 16.7887 22.1021Z" transform="translate(44.00879 4.544022)" id="Path" fill="#FFFFFF" stroke="none" />
      <path d="M22.3307 22.252C22.3525 22.2233 22.3727 22.1935 22.3913 22.1626C22.4094 22.1321 22.4256 22.1016 22.4417 22.069C22.4579 22.0365 22.4741 22.0019 22.4882 21.9674C22.5004 21.9328 22.5105 21.8975 22.5185 21.8617C22.5287 21.8269 22.5368 21.7916 22.5427 21.7559C22.5495 21.7155 22.5542 21.6748 22.5568 21.6339C22.5568 21.6116 22.5568 21.5912 22.5568 21.5689C22.5568 21.5465 22.5568 21.5465 22.5568 21.5343C22.5558 21.4934 22.5517 21.4526 22.5447 21.4123C22.539 21.3425 22.5226 21.2739 22.4963 21.209C22.4846 21.1695 22.4704 21.1308 22.4539 21.0931C22.449 21.0833 22.4449 21.0731 22.4417 21.0626L12.2883 0.621625L12.2742 0.599261C12.2551 0.561472 12.2328 0.525419 12.2076 0.491505C12.1894 0.465075 12.1712 0.436611 12.1511 0.410181C12.1271 0.381598 12.1015 0.354444 12.0743 0.328856C12.0481 0.302425 12.0218 0.275994 11.9936 0.251597C11.9653 0.227199 11.9411 0.215001 11.9128 0.19467C11.8846 0.174338 11.8442 0.147908 11.8078 0.127576L11.7856 0.113345L11.717 0.086914C11.6786 0.0706491 11.6423 0.0564172 11.6039 0.0442185L11.4989 0.019821C11.4629 0.0117488 11.4266 0.00564056 11.3899 0.00152288C11.3536 -0.000507627 11.3172 -0.000507627 11.2809 0.00152288C11.2439 -0.000468893 11.2068 -0.000468893 11.1698 0.00152288C11.1339 0.00564177 11.0981 0.0117504 11.0628 0.019821C11.0268 0.0259942 10.991 0.0341387 10.9558 0.0442185C10.918 0.0563272 10.881 0.0705819 10.8448 0.086914L10.7761 0.113345L10.7519 0.127576C10.7156 0.147908 10.6812 0.172305 10.6469 0.19467C10.6126 0.217034 10.5904 0.231266 10.5662 0.251597C10.5419 0.271928 10.5117 0.304458 10.4854 0.330889C10.4592 0.357319 10.4329 0.381717 10.4087 0.410181C10.3845 0.438644 10.3703 0.465075 10.3522 0.493539C10.3276 0.527238 10.3054 0.562558 10.2855 0.599261L10.2714 0.621625L0.117998 21.0545C0.113098 21.0643 0.109045 21.0745 0.105884 21.085C0.0886592 21.1226 0.0738236 21.1614 0.0614664 21.2009C0.0513716 21.2334 0.0392577 21.268 0.0311819 21.3025C0.023106 21.3371 0.0190681 21.3717 0.0130111 21.4062C0.00695423 21.4408 0.00291629 21.4876 0.00089732 21.5282C-0.00112165 21.5689 0.00089732 21.5506 0.00089732 21.5628C0.00089732 21.575 0.00089732 21.6055 0.00089732 21.6278C0.00182696 21.6688 0.00587682 21.7095 0.0130111 21.7498C0.0189407 21.7855 0.0270316 21.8208 0.0372388 21.8556C0.044939 21.8917 0.0557476 21.927 0.0695423 21.9613C0.0826482 21.9959 0.0974727 22.0298 0.11396 22.0629C0.130111 22.0955 0.146263 22.126 0.164434 22.1565C0.183657 22.1874 0.204551 22.2173 0.227022 22.2459C0.248355 22.2762 0.271981 22.3047 0.297686 22.3313C0.321722 22.3586 0.347341 22.3844 0.374407 22.4086C0.402672 22.4309 0.428919 22.4553 0.459204 22.4777L0.560152 22.5428C0.580342 22.5529 0.596493 22.5672 0.616683 22.5773L0.661101 22.5976L0.703499 22.6159C0.762449 22.6398 0.823215 22.6588 0.885206 22.6729L0.911453 22.6729C0.977886 22.6868 1.0455 22.6943 1.11335 22.6952C1.18118 22.6939 1.24876 22.6864 1.31525 22.6729L1.36976 22.6729C1.42393 22.6593 1.4772 22.6423 1.52926 22.622L1.55752 22.6119C1.6165 22.5862 1.67324 22.5556 1.72712 22.5204L1.76952 22.4899C1.81109 22.459 1.85086 22.4258 1.88863 22.3903C1.89873 22.3903 1.91084 22.372 1.92094 22.3598C1.96678 22.3138 2.00803 22.2634 2.0441 22.2093C2.05089 22.1996 2.05696 22.1894 2.06227 22.1788C2.08447 22.1443 2.10466 22.1117 2.12283 22.0772L6.89164 12.4788L15.6459 12.4788L20.4248 22.0711C20.443 22.1056 20.4652 22.1402 20.4854 22.1727L20.5035 22.2032C20.5402 22.2581 20.5821 22.3091 20.6287 22.3557C20.6287 22.3557 20.6489 22.374 20.659 22.3842C20.697 22.4202 20.7375 22.4534 20.7801 22.4838L20.8205 22.5143C20.8744 22.5495 20.9311 22.5801 20.9901 22.6058L21.0184 22.6159C21.0705 22.6359 21.1238 22.6529 21.1779 22.6668L21.2344 22.6668C21.3009 22.6804 21.3685 22.6878 21.4363 22.6891C21.5042 22.6883 21.5718 22.6808 21.6382 22.6668L21.6644 22.6668C21.7271 22.6527 21.7885 22.6337 21.8482 22.6098L21.8886 22.5915L21.933 22.5712C21.9532 22.5611 21.9693 22.5468 21.9895 22.5367L22.0925 22.4716L22.1752 22.4025C22.2015 22.3781 22.2277 22.3537 22.254 22.3252C22.2802 22.2967 22.3065 22.2744 22.3307 22.252ZM8.03236 10.2078L11.2809 3.66928L14.5274 10.2078L8.03236 10.2078Z" transform="translate(126.3643 4.562836)" id="Shape" fill="#FFFFFF" stroke="none" />
      <path d="M11.0357 10.2268L11.0357 10.2268L6.25481 10.2268C4.07377 10.2268 2.3057 8.44635 2.3057 6.25003C2.3057 4.05371 4.07377 2.27324 6.25481 2.27324L14.7163 2.27324C15.3396 2.27324 15.8449 1.76441 15.8449 1.13673C15.8449 0.509046 15.3396 0.000211074 14.7163 0.000211074L6.25481 0.000211074C2.86106 -0.0275969 0.0749317 2.69573 0.00148163 6.11258C-0.0719684 9.52942 2.59452 12.3716 5.98628 12.4917L5.98628 12.4917L10.7733 12.4917C12.1841 12.4917 13.4878 13.2497 14.1933 14.4801C14.8987 15.7105 14.8987 17.2265 14.1933 18.4569C13.4878 19.6873 12.1841 20.4453 10.7733 20.4453L2.3057 20.4453C1.68239 20.4453 1.1771 20.9541 1.1771 21.5818C1.1771 22.2095 1.68239 22.7183 2.3057 22.7183L10.7672 22.7183C14.1609 22.7461 16.9471 20.0228 17.0205 16.606C17.094 13.1891 14.4275 10.3469 11.0357 10.2268L11.0357 10.2268Z" transform="translate(87.38867 4.549911)" id="Path" fill="#FFFFFF" stroke="none" />
    </g>
  </g>
</svg>